<svg xmlns="http://www.w3.org/2000/svg" xmlns:xlink="http://www.w3.org/1999/xlink" viewBox="0 0 392.13 35.35"><defs><style>.cls-1{fill:url(#linear-gradient);}.cls-2{fill:url(#linear-gradient-2);}.cls-3{fill:url(#linear-gradient-3);}.cls-4{fill:url(#linear-gradient-4);}.cls-5{fill:url(#linear-gradient-5);}.cls-6{fill:url(#linear-gradient-6);}.cls-7{fill:url(#linear-gradient-7);}.cls-8{fill:url(#linear-gradient-8);}</style><linearGradient id="linear-gradient" y1="17.68" x2="27.58" y2="17.68" gradientUnits="userSpaceOnUse"><stop offset="0" stop-color="#e6bb2c"/><stop offset="0.25" stop-color="#d2b65b"/><stop offset="0.55" stop-color="#f0e093"/><stop offset="0.81" stop-color="#dcb842"/><stop offset="1" stop-color="#b68027"/></linearGradient><linearGradient id="linear-gradient-2" x1="44.73" y1="17.67" x2="80.21" y2="17.67" xlink:href="#linear-gradient"/><linearGradient id="linear-gradient-3" x1="97.63" y1="17.65" x2="131.5" y2="17.65" xlink:href="#linear-gradient"/><linearGradient id="linear-gradient-4" x1="149.48" y1="17.86" x2="185.56" y2="17.86" xlink:href="#linear-gradient"/><linearGradient id="linear-gradient-5" x1="203.43" y1="17.68" x2="227.34" y2="17.68" xlink:href="#linear-gradient"/><linearGradient id="linear-gradient-6" x1="273.95" y1="17.68" x2="297.86" y2="17.68" xlink:href="#linear-gradient"/><linearGradient id="linear-gradient-7" x1="317.84" y1="17.68" x2="344.57" y2="17.68" xlink:href="#linear-gradient"/><linearGradient id="linear-gradient-8" x1="356.43" y1="17.5" x2="392.13" y2="17.5" xlink:href="#linear-gradient"/></defs><title>Asset 3</title><g id="Layer_2" data-name="Layer 2"><g id="logo"><path class="cls-1" d="M26.22,26.07c-.42,0-.69.14-.79.42a20.15,20.15,0,0,1-1.18,2.59,7.14,7.14,0,0,1-1.34,1.76,4.31,4.31,0,0,1-1.7,1,8.15,8.15,0,0,1-2.28.29h-2a21,21,0,0,1-4.67-.37c-.94-.24-1.42-.73-1.42-1.47V4.67a1.73,1.73,0,0,1,.76-1.54,8.19,8.19,0,0,1,3-.81c.35-.11.52-.41.52-.9,0-.1,0-.26,0-.47s-.05-.4-.08-.57l-1.86.1c-.69,0-1.37.06-2,.08l-2,0L7.5.64c-1,0-2.1,0-3.36-.08S1.69.45.58.38A1.48,1.48,0,0,0,.47,1v.47c0,.49.18.79.53.9a12.06,12.06,0,0,1,1.75.34,2.67,2.67,0,0,1,1,.44,1.32,1.32,0,0,1,.42.6,3,3,0,0,1,.11.87V30.84a1.5,1.5,0,0,1-.87,1.47,11.92,11.92,0,0,1-2.86.78c-.35,0-.52.32-.52.84v.5A1.23,1.23,0,0,0,.1,35q1.57-.1,3.54-.18c1.31-.06,2.48-.08,3.49-.08H19c.46,0,1,0,1.6.05l1.81.08c.59,0,1.15,0,1.65.08s.9,0,1.18,0a1.24,1.24,0,0,0,.61-.16c.19-.1.3-.36.34-.78.17-1.26.37-2.55.6-3.86s.48-2.52.76-3.64l-.73-.32A1.77,1.77,0,0,0,26.22,26.07Z"/><path class="cls-2" d="M78.85,10.61A16.64,16.64,0,0,0,75.1,5a17,17,0,0,0-5.63-3.66,18.67,18.67,0,0,0-7-1.32,16.94,16.94,0,0,0-6.88,1.41A17.44,17.44,0,0,0,49.91,5.2a17.81,17.81,0,0,0-3.79,5.61,16.84,16.84,0,0,0-1.39,6.87,18,18,0,0,0,1.36,7.11,17.68,17.68,0,0,0,3.71,5.58A17,17,0,0,0,55.43,34a18.64,18.64,0,0,0,7,1.32A17.53,17.53,0,0,0,69.36,34,18.31,18.31,0,0,0,75,30.19a17.54,17.54,0,0,0,3.8-5.63,16.92,16.92,0,0,0,1.38-6.88A17.82,17.82,0,0,0,78.85,10.61ZM72.29,25.08a13.13,13.13,0,0,1-2,3.93,9.36,9.36,0,0,1-3.06,2.63,8.21,8.21,0,0,1-4,1,8.63,8.63,0,0,1-4.78-1.34,11,11,0,0,1-3.55-3.73,18.78,18.78,0,0,1-2.18-5.67A31.35,31.35,0,0,1,52,14.69a14.31,14.31,0,0,1,.78-5A11.72,11.72,0,0,1,54.85,6a8.84,8.84,0,0,1,3-2.37,8.52,8.52,0,0,1,3.58-.8,9.42,9.42,0,0,1,5,1.34,10.93,10.93,0,0,1,3.62,3.66,18.63,18.63,0,0,1,2.17,5.54A32.73,32.73,0,0,1,73,20.25,16.59,16.59,0,0,1,72.29,25.08Z"/><path class="cls-3" d="M130.45,4.31a15.69,15.69,0,0,1-.34-2.15A5.15,5.15,0,0,0,129.87.8.88.88,0,0,0,129,.32c-.42,0-1.19.06-2.33.16s-2.49.16-4.06.16H106.49c-1.61,0-3-.05-4.12-.16s-1.89-.16-2.28-.16a.82.82,0,0,0-.84.48A6.51,6.51,0,0,0,99,2.16c-.07.63-.17,1.34-.31,2.15-.11.63-.25,1.27-.42,1.91s-.39,1.39-.63,2.23a4.76,4.76,0,0,0,.63.24,2.75,2.75,0,0,0,.73.13.79.79,0,0,0,.79-.47A22.47,22.47,0,0,1,101,6a6,6,0,0,1,1.36-1.57,5,5,0,0,1,1.79-.89,9.35,9.35,0,0,1,2.49-.29h4.61V30.84a1.91,1.91,0,0,1-.5,1.49,5.14,5.14,0,0,1-2.44.71c-.38.07-.62.18-.7.34a1.21,1.21,0,0,0-.14.6q0,.17,0,.48a1.47,1.47,0,0,0,.13.52q1.68-.1,3.54-.18c1.24-.06,2.37-.08,3.38-.08s2.11,0,3.39.08,2.47.11,3.59.18a4.46,4.46,0,0,0,.08-.52c0-.21,0-.37,0-.48a.85.85,0,0,0-.79-.89,9.66,9.66,0,0,1-1.62-.34,2.63,2.63,0,0,1-.89-.44,1.11,1.11,0,0,1-.39-.61,3.44,3.44,0,0,1-.08-.86V3.26h4.61a9.17,9.17,0,0,1,2.44.29,5.05,5.05,0,0,1,1.78.89A5.86,5.86,0,0,1,128.06,6a20.64,20.64,0,0,1,1.24,2.34.89.89,0,0,0,.84.47,2.49,2.49,0,0,0,.7-.13l.66-.24c-.28-.84-.5-1.58-.66-2.23S130.55,4.94,130.45,4.31Z"/><path class="cls-4" d="M185.45.38c-.84.1-1.7.17-2.57.21s-1.87.05-3,.05-1.89,0-2.75-.05-1.79-.11-2.81-.21a4.63,4.63,0,0,0-.07.52,3.89,3.89,0,0,0,0,.42c0,.56.21.89.63,1a7.46,7.46,0,0,1,2.78.73,1.66,1.66,0,0,1,.73,1.52v16.1c0,4-.71,6.86-2.12,8.62s-3.8,2.65-7.16,2.65-5.6-.94-7-2.83-2-4.65-2-8.29V4.57a1.64,1.64,0,0,1,.76-1.52,7.91,7.91,0,0,1,2.91-.73c.38-.07.57-.41.57-1,0-.11,0-.24,0-.42s0-.35-.08-.52q-1.58.1-3.57.18c-1.33,0-2.6.08-3.83.08-1.57,0-2.92,0-4.06-.08S150.6.45,149.59.38a1.39,1.39,0,0,0-.11.52v.42c0,.59.19.93.58,1a7.57,7.57,0,0,1,2.78.7,1.73,1.73,0,0,1,.68,1.55V22a24.67,24.67,0,0,0,.52,5.21,9.46,9.46,0,0,0,2.07,4.25,10.35,10.35,0,0,0,4.41,2.86A22.23,22.23,0,0,0,168,35.35a18.49,18.49,0,0,0,6.53-1,10.06,10.06,0,0,0,4.14-2.8,10.5,10.5,0,0,0,2.18-4.3,22.35,22.35,0,0,0,.63-5.48V4.57A1.75,1.75,0,0,1,182.25,3a6.4,6.4,0,0,1,2.68-.7c.42-.11.63-.44.63-1a3.89,3.89,0,0,0,0-.42C185.51.73,185.48.55,185.45.38Z"/><path class="cls-5" d="M222.65,16.79a23,23,0,0,0-4.35-2.1Q216,13.85,214,13a13.19,13.19,0,0,1-3.36-2.07,4,4,0,0,1-1.34-3.12A4.27,4.27,0,0,1,211,4a7.27,7.27,0,0,1,4.27-1.23A8.87,8.87,0,0,1,220.4,4.1a9.26,9.26,0,0,1,3.12,4.3,1.44,1.44,0,0,0,.42.6,1.5,1.5,0,0,0,1,.29,3,3,0,0,0,1-.16c-.21-1.05-.39-2.23-.55-3.54s-.27-2.49-.34-3.54A34.51,34.51,0,0,0,220,.48,21.66,21.66,0,0,0,215.6,0a13.22,13.22,0,0,0-4.75.79,10.94,10.94,0,0,0-3.54,2.12,9,9,0,0,0-2.22,3.15,10,10,0,0,0-.76,3.92,8.65,8.65,0,0,0,1.28,5,10.7,10.7,0,0,0,3.2,3.05A20.15,20.15,0,0,0,213,20c1.49.51,2.87,1.05,4.14,1.63a10.69,10.69,0,0,1,3.2,2.15,4.79,4.79,0,0,1,1.29,3.55,5.94,5.94,0,0,1-.37,2,4.78,4.78,0,0,1-1.1,1.74,5.39,5.39,0,0,1-1.89,1.18,7.68,7.68,0,0,1-2.78.45,11.93,11.93,0,0,1-3.33-.42A7,7,0,0,1,209.57,31a8.85,8.85,0,0,1-1.94-2.36,19,19,0,0,1-1.52-3.43,1.74,1.74,0,0,0-.53-.82,1.61,1.61,0,0,0-.94-.23,3.27,3.27,0,0,0-1.21.21c.28,1.36.54,2.77.77,4.22s.39,2.92.49,4.42a24.79,24.79,0,0,0,4.51,1.62,23.38,23.38,0,0,0,6.19.75,15,15,0,0,0,5.4-.87,10.51,10.51,0,0,0,3.72-2.31,8.77,8.77,0,0,0,2.15-3.32,11.25,11.25,0,0,0,.68-3.88A8.59,8.59,0,0,0,226,20,11.16,11.16,0,0,0,222.65,16.79Z"/><path class="cls-6" d="M293.17,16.79a23,23,0,0,0-4.35-2.1q-2.34-.84-4.35-1.73a13.19,13.19,0,0,1-3.36-2.07,4,4,0,0,1-1.34-3.12A4.27,4.27,0,0,1,281.53,4a7.27,7.27,0,0,1,4.27-1.23,8.87,8.87,0,0,1,5.12,1.31A9.26,9.26,0,0,1,294,8.4a1.44,1.44,0,0,0,.42.6,1.5,1.5,0,0,0,1,.29,3,3,0,0,0,1-.16c-.21-1.05-.39-2.23-.55-3.54s-.27-2.49-.34-3.54A34.51,34.51,0,0,0,290.55.48,21.66,21.66,0,0,0,286.12,0a13.22,13.22,0,0,0-4.75.79,10.94,10.94,0,0,0-3.54,2.12,9,9,0,0,0-2.22,3.15,10,10,0,0,0-.76,3.92,8.65,8.65,0,0,0,1.28,5,10.7,10.7,0,0,0,3.2,3.05A20.15,20.15,0,0,0,283.47,20c1.49.51,2.87,1.05,4.14,1.63a10.69,10.69,0,0,1,3.2,2.15,4.79,4.79,0,0,1,1.29,3.55,5.94,5.94,0,0,1-.37,2,4.78,4.78,0,0,1-1.1,1.74,5.39,5.39,0,0,1-1.89,1.18,7.68,7.68,0,0,1-2.78.45,11.93,11.93,0,0,1-3.33-.42A7,7,0,0,1,280.09,31a8.67,8.67,0,0,1-1.94-2.36,19,19,0,0,1-1.52-3.43,1.74,1.74,0,0,0-.53-.82,1.61,1.61,0,0,0-.94-.23,3.27,3.27,0,0,0-1.21.21c.28,1.36.54,2.77.76,4.22s.4,2.92.5,4.42a24.79,24.79,0,0,0,4.51,1.62,23.38,23.38,0,0,0,6.19.75,15,15,0,0,0,5.4-.87A10.51,10.51,0,0,0,295,32.17a8.77,8.77,0,0,0,2.15-3.32,11.25,11.25,0,0,0,.68-3.88,8.59,8.59,0,0,0-1.33-5A11.27,11.27,0,0,0,293.17,16.79Z"/><path class="cls-7" d="M341.44,3.15c-2.1-1.68-5-2.5-8.77-2.5h-7.91c-1,0-2.16-.05-3.44-.09S318.91.45,318,.38a.6.6,0,0,0-.11.42v.47A1.31,1.31,0,0,0,318,2a1,1,0,0,0,.42.31,7.53,7.53,0,0,1,2.9.74,1.6,1.6,0,0,1,.76,1.52V30.84a2.42,2.42,0,0,1-.13.87,1.28,1.28,0,0,1-.49.58,3.85,3.85,0,0,1-1,.4,17.51,17.51,0,0,1-1.79.4c-.38.07-.58.4-.58,1v.4a1.35,1.35,0,0,0,.11.49c1-.09,2.1-.13,3.29-.2s2.39-.07,3.64-.07c1.78,0,3.43,0,4.95.07s2.79.11,3.8.2a5,5,0,0,0,.11-1c0-.63-.24-1-.74-1.05a11.88,11.88,0,0,1-3.48-.8,1.74,1.74,0,0,1-1-1.7V20.41h4a14,14,0,0,0,5-.85,11.54,11.54,0,0,0,3.76-2.23,9.13,9.13,0,0,0,2.32-3.24,9.89,9.89,0,0,0,.78-3.91A8.52,8.52,0,0,0,341.44,3.15Zm-6,13a8,8,0,0,1-5.18,1.6h-1.57V3.26h1.57c2.7,0,4.55.65,5.58,1.94a8.44,8.44,0,0,1,1.56,5.45C337.4,13.24,336.73,15.07,335.44,16.17Z"/><path class="cls-8" d="M391.35,33a7.61,7.61,0,0,1-1.94-.54,2.13,2.13,0,0,1-1.21-1.18L375.56.11c-.2,0-.4-.07-.58-.07a3.91,3.91,0,0,0-.51,0,1.34,1.34,0,0,0-1.25.89L360.58,31.1a2.72,2.72,0,0,1-1.14,1.26,10.51,10.51,0,0,1-2.32.69c-.47,0-.69.38-.69,1.05v.4a1.17,1.17,0,0,0,.11.49c.94-.11,1.78-.18,2.57-.22s1.49-.05,2.21-.05c1,0,2,0,3.08.07s2.05.11,3,.2a4.85,4.85,0,0,0,.11-.89c0-.61-.24-.94-.74-1a6.59,6.59,0,0,1-2.23-.62,1.09,1.09,0,0,1-.56-.94A3.3,3.3,0,0,1,364,31a1.22,1.22,0,0,1,.2-.56l2.73-7.3h11l2.8,7.5a3.6,3.6,0,0,1,.15.78,1.08,1.08,0,0,1-.67,1,7.9,7.9,0,0,1-2,.6,1,1,0,0,0-.4.29,1.27,1.27,0,0,0-.18.72v.4a1.35,1.35,0,0,0,.11.49c.49,0,1.1-.07,1.81-.09l2.17-.07,2.16-.09c.7,0,1.28,0,1.77,0,1,0,2,0,3.06.07s2.16.11,3.28.2a3.82,3.82,0,0,0,.11-1A1,1,0,0,0,391.35,33ZM368,20.57l4.56-11.79L377,20.57Z"/></g></g></svg>