<svg xmlns="http://www.w3.org/2000/svg" xmlns:xlink="http://www.w3.org/1999/xlink" viewBox="0 0 346.48 424.93"><defs><style>.cls-1{fill:url(#linear-gradient);}.cls-2{fill:url(#linear-gradient-2);}</style><linearGradient id="linear-gradient" y1="252.9" x2="346.48" y2="252.9" gradientUnits="userSpaceOnUse"><stop offset="0" stop-color="#e6bb2c"/><stop offset="0.25" stop-color="#d2b65b"/><stop offset="0.55" stop-color="#f0e093"/><stop offset="0.81" stop-color="#dcb842"/><stop offset="1" stop-color="#b68027"/></linearGradient><linearGradient id="linear-gradient-2" x1="130.38" y1="63.19" x2="216.1" y2="63.19" xlink:href="#linear-gradient"/></defs><title>Asset 2</title><g id="Layer_2" data-name="Layer 2"><g id="logo"><path class="cls-1" d="M260,260.8a219.59,219.59,0,0,0-11.73,27.46c7.79,15.67,14.44,31.91,17.87,49.11,6.57,32.92-3.39,61-24,86.16-15.14-1.49-29.08-5.1-41.55-11.39a91.81,91.81,0,0,1-12.74-7.76,84.2,84.2,0,0,0,7.63-7.41c21.4-23.56,30.64-55.67,39.18-85.23,3-10.5,6-21.23,9.35-31.86A290.67,290.67,0,0,1,254.62,251a165,165,0,0,1,13.87-25.78,101.55,101.55,0,0,1,12.29-15.12c17.46-17.61,39.84-26.28,65.7-28.82-33.26-4.08-67.09-.12-91.34,26.58a115.08,115.08,0,0,0-13.82,18.91c-10-18.92-19.08-38.56-23.28-59.62-6.59-33,3.43-61.09,24.07-86.22-26.4,20.63-47.52,47.35-45.79,83.38,1.54,31.8,17.69,61,32.57,88l.12.23c-5.19,13.37-9.19,27.23-13,40.59-8.49,29.41-16.47,60.55-33.83,86.56a101.56,101.56,0,0,1-8.9,11.52,102.72,102.72,0,0,1-8.9-11.52c-17.35-26-25.33-57.15-33.83-86.56-3.85-13.36-7.84-27.22-13-40.58l.13-.24c14.88-26.93,31-56.17,32.57-88,1.73-36-19.38-62.75-45.79-83.38C125,106,135,134.12,128.44,167.1c-4.2,21.06-13.23,40.7-23.27,59.62a116.91,116.91,0,0,0-13.83-18.91C67.09,181.11,33.26,177.15,0,181.23c25.86,2.54,48.24,11.21,65.71,28.82A101.5,101.5,0,0,1,78,225.17,165.85,165.85,0,0,1,91.86,251a291.48,291.48,0,0,1,10.61,28.92c3.35,10.63,6.32,21.36,9.35,31.87C120.35,341.3,129.6,373.41,151,397a82.82,82.82,0,0,0,7.62,7.41,91.81,91.81,0,0,1-12.74,7.76c-12.47,6.29-26.41,9.9-41.54,11.39h0c-20.64-25.13-30.6-53.24-24-86.16,3.43-17.2,10.08-33.44,17.88-49.11A221.15,221.15,0,0,0,86.44,260.8C73.05,285.33,60,311.74,58.58,340.2c-1.73,36,19.36,62.72,45.74,83.34h-.17l.22,0c16.91,2.06,34,2,49.83-2A88.63,88.63,0,0,0,169.87,416c1.14-.53,2.26-1.09,3.37-1.68,1.12.59,2.25,1.15,3.38,1.68a87.34,87.34,0,0,0,15.67,5.59c15.86,4.05,32.91,4.08,49.82,2l.22,0h-.16c26.37-20.62,47.46-47.34,45.73-83.34C286.53,311.74,273.44,285.33,260,260.8Z"/><ellipse class="cls-2" cx="173.24" cy="63.19" rx="42.86" ry="63.19"/></g></g></svg>