<?xml version="1.0" standalone="no"?>
<!DOCTYPE svg PUBLIC "-//W3C//DTD SVG 20010904//EN"
 "http://www.w3.org/TR/2001/REC-SVG-20010904/DTD/svg10.dtd">
<svg version="1.0" xmlns="http://www.w3.org/2000/svg"
 width="1024.000000pt" height="196.000000pt" viewBox="0 0 1024.000000 196.000000"
 preserveAspectRatio="xMidYMid meet">

<g transform="translate(0.000000,196.000000) scale(0.100000,-0.100000)"
fill="#000000" stroke="none">
<path d="M5292 1821 c-33 -85 -110 -195 -201 -289 l-81 -84 0 -66 1 -67 46 50
c127 138 222 303 249 434 8 40 13 75 12 77 -2 1 -14 -23 -26 -55z"/>
<path d="M2190 1837 c0 -45 48 -179 89 -249 43 -74 105 -156 175 -233 l45 -50
1 70 0 71 -71 69 c-94 93 -154 173 -200 269 -29 59 -39 73 -39 53z"/>
<path d="M195 1352 c-39 -5 -73 -37 -85 -81 -6 -20 -10 -167 -10 -333 l0 -298
40 0 40 0 0 105 0 105 45 0 44 0 4 -107 c1 -60 4 52 5 248 l2 357 -27 3 c-16
2 -41 3 -58 1z m65 -81 c6 -12 10 -92 10 -190 l0 -171 -45 0 -45 0 0 164 c0
91 4 176 10 190 12 32 54 36 70 7z"/>
<path d="M1740 995 l0 -355 90 0 90 0 0 46 0 46 -55 -7 -55 -6 0 130 0 131 45
0 45 0 0 36 0 37 -45 -5 -45 -6 0 119 0 119 55 0 55 0 0 35 0 35 -90 0 -90 0
0 -355z"/>
<path d="M5625 1328 c-47 -41 -61 -187 -26 -264 16 -35 66 -84 85 -84 12 0 6
78 -9 113 -19 45 -19 120 0 172 21 57 19 85 -4 85 -11 0 -32 -10 -46 -22z"/>
<path d="M6565 1308 c13 -75 17 -398 5 -398 -5 0 -10 -13 -10 -30 0 -16 5 -30
10 -30 6 0 10 -42 10 -105 l0 -105 40 0 40 0 0 298 c0 173 -4 312 -10 334 -11
38 -51 78 -77 78 -12 0 -14 -9 -8 -42z"/>
<path d="M5200 1199 c-30 -28 -85 -73 -122 -101 -60 -45 -68 -55 -68 -84 0
-19 4 -34 9 -34 13 0 170 168 209 223 18 26 32 47 30 47 -2 -1 -28 -24 -58
-51z"/>
<path d="M2278 1200 c46 -64 157 -185 192 -210 l30 -21 -1 38 c0 35 -5 42 -72
91 -40 29 -97 74 -127 100 l-54 47 32 -45z"/>
<path d="M2364 895 c37 -58 99 -136 118 -146 15 -8 18 -6 18 16 0 14 -4 25 -8
25 -5 0 -39 30 -78 67 -41 41 -61 56 -50 38z"/>
<path d="M5077 847 c-47 -44 -67 -69 -67 -86 l0 -25 30 29 c26 25 116 146 108
145 -2 -1 -33 -29 -71 -63z"/>
<path d="M5580 833 c0 -9 5 -45 11 -79 12 -68 45 -114 81 -114 22 0 22 21 -3
148 l-12 62 -38 0 c-30 0 -39 -4 -39 -17z"/>
</g>
</svg>
