<svg xmlns="http://www.w3.org/2000/svg" xmlns:xlink="http://www.w3.org/1999/xlink" viewBox="0 0 392.13 505.1"><defs><style>.cls-1{fill:url(#linear-gradient);}.cls-2{fill:url(#linear-gradient-2);}.cls-3{fill:url(#linear-gradient-3);}.cls-4{fill:url(#linear-gradient-4);}.cls-5{fill:url(#linear-gradient-5);}.cls-6{fill:url(#linear-gradient-6);}.cls-7{fill:url(#linear-gradient-7);}.cls-8{fill:url(#linear-gradient-8);}.cls-9{fill:url(#linear-gradient-9);}.cls-10{fill:url(#linear-gradient-10);}</style><linearGradient id="linear-gradient" x1="23.38" y1="252.9" x2="369.85" y2="252.9" gradientUnits="userSpaceOnUse"><stop offset="0" stop-color="#e6bb2c"/><stop offset="0.25" stop-color="#d2b65b"/><stop offset="0.55" stop-color="#f0e093"/><stop offset="0.81" stop-color="#dcb842"/><stop offset="1" stop-color="#b68027"/></linearGradient><linearGradient id="linear-gradient-2" x1="153.76" y1="63.19" x2="239.48" y2="63.19" xlink:href="#linear-gradient"/><linearGradient id="linear-gradient-3" x1="0" y1="487.43" x2="27.58" y2="487.43" xlink:href="#linear-gradient"/><linearGradient id="linear-gradient-4" x1="44.73" y1="487.43" x2="80.21" y2="487.43" xlink:href="#linear-gradient"/><linearGradient id="linear-gradient-5" x1="97.63" y1="487.41" x2="131.5" y2="487.41" xlink:href="#linear-gradient"/><linearGradient id="linear-gradient-6" x1="149.48" y1="487.62" x2="185.56" y2="487.62" xlink:href="#linear-gradient"/><linearGradient id="linear-gradient-7" x1="203.43" y1="487.43" x2="227.34" y2="487.43" xlink:href="#linear-gradient"/><linearGradient id="linear-gradient-8" x1="273.95" y1="487.43" x2="297.86" y2="487.43" xlink:href="#linear-gradient"/><linearGradient id="linear-gradient-9" x1="317.84" y1="487.44" x2="344.57" y2="487.44" xlink:href="#linear-gradient"/><linearGradient id="linear-gradient-10" x1="356.43" y1="487.25" x2="392.13" y2="487.25" xlink:href="#linear-gradient"/></defs><title>Asset 1</title><g id="Layer_2" data-name="Layer 2"><g id="logo"><path class="cls-1" d="M283.42,260.8a219.59,219.59,0,0,0-11.73,27.46c7.79,15.67,14.44,31.91,17.87,49.11,6.57,32.92-3.39,61-24,86.16-15.13-1.49-29.07-5.1-41.54-11.39a91.81,91.81,0,0,1-12.74-7.76,84.2,84.2,0,0,0,7.63-7.41c21.4-23.56,30.64-55.67,39.18-85.23,3-10.5,6-21.23,9.35-31.86A290.67,290.67,0,0,1,278,251a165,165,0,0,1,13.87-25.78,101.55,101.55,0,0,1,12.29-15.12c17.46-17.61,39.84-26.28,65.69-28.82-33.25-4.08-67.08-.12-91.33,26.58a115.73,115.73,0,0,0-13.83,18.91c-10-18.92-19.07-38.56-23.27-59.62-6.59-33,3.42-61.09,24.07-86.22-26.4,20.63-47.52,47.35-45.79,83.38,1.54,31.8,17.69,61,32.57,88l.12.23c-5.19,13.37-9.19,27.23-13,40.59-8.5,29.41-16.47,60.55-33.83,86.56a101.56,101.56,0,0,1-8.9,11.52,102.72,102.72,0,0,1-8.9-11.52c-17.36-26-25.33-57.15-33.83-86.56-3.85-13.36-7.84-27.22-13-40.58l.13-.24c14.88-26.93,31-56.17,32.57-88,1.73-36-19.39-62.75-45.79-83.38C148.4,106,158.4,134.12,151.82,167.1c-4.2,21.06-13.23,40.7-23.27,59.62a116.91,116.91,0,0,0-13.83-18.91c-24.25-26.7-58.08-30.66-91.34-26.58,25.86,2.54,48.24,11.21,65.71,28.82a101.5,101.5,0,0,1,12.28,15.12A165.8,165.8,0,0,1,115.23,251a291.54,291.54,0,0,1,10.62,28.92c3.35,10.63,6.31,21.36,9.34,31.87C143.73,341.3,153,373.41,174.37,397a84.2,84.2,0,0,0,7.63,7.41,91.81,91.81,0,0,1-12.74,7.76c-12.47,6.29-26.41,9.9-41.54,11.39h0c-20.64-25.13-30.6-53.24-24-86.16,3.43-17.2,10.08-33.44,17.87-49.11a219.59,219.59,0,0,0-11.73-27.46C96.43,285.33,83.33,311.74,82,340.2c-1.73,36,19.36,62.72,45.74,83.34h-.17l.22,0c16.91,2.06,34,2,49.83-2A88.63,88.63,0,0,0,193.25,416c1.14-.53,2.26-1.09,3.37-1.68,1.12.59,2.25,1.15,3.38,1.68a87.07,87.07,0,0,0,15.67,5.59c15.86,4.05,32.91,4.08,49.82,2l.22,0h-.17c26.38-20.62,47.47-47.34,45.74-83.34C309.91,311.74,296.81,285.33,283.42,260.8Z"/><ellipse class="cls-2" cx="196.62" cy="63.19" rx="42.86" ry="63.19"/><path class="cls-3" d="M26.22,495.82c-.42,0-.69.14-.79.42a21,21,0,0,1-1.18,2.6,7.08,7.08,0,0,1-1.34,1.75,4.19,4.19,0,0,1-1.7,1,8.15,8.15,0,0,1-2.28.29h-2a20.4,20.4,0,0,1-4.67-.37c-.94-.24-1.42-.73-1.42-1.46V474.43a1.73,1.73,0,0,1,.76-1.55,8.4,8.4,0,0,1,3-.81c.35-.11.52-.4.52-.89,0-.11,0-.26,0-.47s-.05-.41-.08-.58l-1.86.1c-.69,0-1.37.07-2,.08l-2,.05-1.68,0c-1,0-2.1,0-3.36-.08s-2.45-.11-3.56-.18a1.54,1.54,0,0,0-.11.58v.47c0,.49.18.78.53.89a13.59,13.59,0,0,1,1.75.34,2.51,2.51,0,0,1,1,.45,1.23,1.23,0,0,1,.42.6,3,3,0,0,1,.11.86v26.27a1.5,1.5,0,0,1-.87,1.47,12.31,12.31,0,0,1-2.86.79c-.35,0-.52.31-.52.84v.49a1.23,1.23,0,0,0,.1.55q1.57-.11,3.54-.18c1.31-.05,2.48-.08,3.49-.08H19c.46,0,1,0,1.6,0s1.22.07,1.81.08l1.65.08c.51,0,.9.05,1.18.05a1.34,1.34,0,0,0,.61-.15c.19-.11.3-.37.34-.79.17-1.26.37-2.54.6-3.85s.48-2.53.76-3.65l-.73-.31A1.61,1.61,0,0,0,26.22,495.82Z"/><path class="cls-4" d="M78.85,480.36a16.74,16.74,0,0,0-3.75-5.63,17,17,0,0,0-5.63-3.66,18.67,18.67,0,0,0-7-1.32,16.94,16.94,0,0,0-6.88,1.41,17.79,17.79,0,0,0-9.44,9.4,16.86,16.86,0,0,0-1.39,6.88,18,18,0,0,0,1.36,7.1,17.57,17.57,0,0,0,3.71,5.58,17,17,0,0,0,5.63,3.66,18.64,18.64,0,0,0,7,1.32,17.7,17.7,0,0,0,6.92-1.38A18.34,18.34,0,0,0,75,499.94a17.49,17.49,0,0,0,3.8-5.62,17,17,0,0,0,1.38-6.88A17.87,17.87,0,0,0,78.85,480.36Zm-6.56,14.47a13,13,0,0,1-2,3.93,9.24,9.24,0,0,1-3.06,2.63,8.21,8.21,0,0,1-4,1A8.71,8.71,0,0,1,58.46,501a11.08,11.08,0,0,1-3.55-3.73,19,19,0,0,1-2.18-5.67,31.35,31.35,0,0,1-.76-7.19,14.27,14.27,0,0,1,.78-5,11.51,11.51,0,0,1,2.1-3.75,8.72,8.72,0,0,1,3-2.37,8.38,8.38,0,0,1,3.58-.81,9.42,9.42,0,0,1,5,1.34,11,11,0,0,1,3.62,3.67,18.46,18.46,0,0,1,2.17,5.53A32.89,32.89,0,0,1,73,490,16.57,16.57,0,0,1,72.29,494.83Z"/><path class="cls-5" d="M130.45,474.06a15.46,15.46,0,0,1-.34-2.15,5.15,5.15,0,0,0-.24-1.36.87.87,0,0,0-.84-.47c-.42,0-1.19.05-2.33.15s-2.49.16-4.06.16H106.49c-1.61,0-3-.05-4.12-.16s-1.89-.15-2.28-.15a.82.82,0,0,0-.84.47,6.51,6.51,0,0,0-.26,1.36c-.07.63-.17,1.35-.31,2.15q-.17.94-.42,1.92c-.18.64-.39,1.39-.63,2.22a4.76,4.76,0,0,0,.63.24,2.4,2.4,0,0,0,.73.13.79.79,0,0,0,.79-.47,21.27,21.27,0,0,1,1.23-2.33,6.27,6.27,0,0,1,1.36-1.58,5,5,0,0,1,1.79-.89,9.35,9.35,0,0,1,2.49-.29h4.61v27.58a2,2,0,0,1-.5,1.5,5.3,5.3,0,0,1-2.44.7c-.38.07-.62.19-.7.34a1.22,1.22,0,0,0-.14.61c0,.1,0,.26,0,.47a1.47,1.47,0,0,0,.13.52q1.68-.11,3.54-.18c1.24-.05,2.37-.08,3.38-.08s2.11,0,3.39.08,2.47.11,3.59.18a4.46,4.46,0,0,0,.08-.52c0-.21,0-.37,0-.47a.84.84,0,0,0-.79-.89,12.22,12.22,0,0,1-1.62-.34,2.63,2.63,0,0,1-.89-.45,1.05,1.05,0,0,1-.39-.6,3.58,3.58,0,0,1-.08-.87V473h4.61a9.17,9.17,0,0,1,2.44.29,5.05,5.05,0,0,1,1.78.89,6.07,6.07,0,0,1,1.36,1.58,19.6,19.6,0,0,1,1.24,2.33.89.89,0,0,0,.84.47,2.18,2.18,0,0,0,.7-.13l.66-.24c-.28-.83-.5-1.58-.66-2.22S130.55,474.69,130.45,474.06Z"/><path class="cls-6" d="M185.45,470.13c-.84.1-1.7.17-2.57.21s-1.87.05-3,.05-1.89,0-2.75-.05-1.79-.11-2.81-.21a4.63,4.63,0,0,0-.07.52,4.06,4.06,0,0,0,0,.42c0,.56.21.89.63,1a7.46,7.46,0,0,1,2.78.73,1.67,1.67,0,0,1,.73,1.52v16.1c0,4-.71,6.86-2.12,8.63s-3.8,2.64-7.16,2.64-5.6-.94-7-2.83-2-4.65-2-8.28V474.32a1.65,1.65,0,0,1,.76-1.52,7.91,7.91,0,0,1,2.91-.73c.38-.07.57-.4.57-1,0-.1,0-.24,0-.42s0-.35-.08-.52q-1.58.11-3.57.18c-1.33.05-2.6.08-3.83.08-1.57,0-2.92,0-4.06-.08s-2.21-.11-3.22-.18a1.39,1.39,0,0,0-.11.52v.42c0,.6.19.93.58,1a7.32,7.32,0,0,1,2.78.71,1.7,1.7,0,0,1,.68,1.54v17.41A24.84,24.84,0,0,0,154,497a9.48,9.48,0,0,0,2.07,4.24,10.35,10.35,0,0,0,4.41,2.86A22.23,22.23,0,0,0,168,505.1a18.5,18.5,0,0,0,6.53-1,10.08,10.08,0,0,0,4.14-2.81,10.5,10.5,0,0,0,2.18-4.3,22.35,22.35,0,0,0,.63-5.48v-17.2a1.72,1.72,0,0,1,.73-1.54,6.37,6.37,0,0,1,2.68-.71c.42-.11.63-.44.63-1a4.06,4.06,0,0,0,0-.42C185.51,470.48,185.48,470.3,185.45,470.13Z"/><path class="cls-7" d="M222.65,486.54a23,23,0,0,0-4.35-2.1c-1.56-.56-3-1.13-4.35-1.73a12.65,12.65,0,0,1-3.36-2.07,4,4,0,0,1-1.34-3.12,4.29,4.29,0,0,1,1.76-3.75,7.27,7.27,0,0,1,4.27-1.23,9,9,0,0,1,5.12,1.31,9.31,9.31,0,0,1,3.12,4.3,1.44,1.44,0,0,0,.42.6,1.45,1.45,0,0,0,1,.29,3.27,3.27,0,0,0,1-.15c-.21-1.05-.39-2.23-.55-3.54s-.27-2.49-.34-3.54a33.48,33.48,0,0,0-5.06-1.58,21.66,21.66,0,0,0-4.43-.47,13.44,13.44,0,0,0-4.75.79,11,11,0,0,0-3.54,2.13,8.81,8.81,0,0,0-2.22,3.15,10,10,0,0,0-.76,3.91,8.71,8.71,0,0,0,1.28,5,10.67,10.67,0,0,0,3.2,3,20.18,20.18,0,0,0,4.14,1.95c1.49.5,2.87,1.05,4.14,1.62a10.71,10.71,0,0,1,3.2,2.16,4.75,4.75,0,0,1,1.29,3.54,6,6,0,0,1-.37,2.05,4.82,4.82,0,0,1-1.1,1.73,5.25,5.25,0,0,1-1.89,1.18,7.68,7.68,0,0,1-2.78.45,11.93,11.93,0,0,1-3.33-.42,6.81,6.81,0,0,1-2.54-1.34,8.7,8.7,0,0,1-1.94-2.36,18.71,18.71,0,0,1-1.52-3.43,1.7,1.7,0,0,0-.53-.81,1.53,1.53,0,0,0-.94-.24,3.27,3.27,0,0,0-1.21.21c.28,1.36.54,2.77.77,4.22s.39,2.93.49,4.43a26.4,26.4,0,0,0,4.51,1.62,23.82,23.82,0,0,0,6.19.74,15.22,15.22,0,0,0,5.4-.86,10.8,10.8,0,0,0,3.72-2.31,8.73,8.73,0,0,0,2.15-3.33,11.21,11.21,0,0,0,.68-3.88,8.59,8.59,0,0,0-1.33-5A11.28,11.28,0,0,0,222.65,486.54Z"/><path class="cls-8" d="M293.17,486.54a23,23,0,0,0-4.35-2.1c-1.56-.56-3-1.13-4.35-1.73a12.65,12.65,0,0,1-3.36-2.07,4,4,0,0,1-1.34-3.12,4.29,4.29,0,0,1,1.76-3.75,7.27,7.27,0,0,1,4.27-1.23,9,9,0,0,1,5.12,1.31,9.31,9.31,0,0,1,3.12,4.3,1.44,1.44,0,0,0,.42.6,1.45,1.45,0,0,0,1,.29,3.27,3.27,0,0,0,1-.15c-.21-1.05-.39-2.23-.55-3.54s-.27-2.49-.34-3.54a33.48,33.48,0,0,0-5.06-1.58,21.66,21.66,0,0,0-4.43-.47,13.44,13.44,0,0,0-4.75.79,11,11,0,0,0-3.54,2.13,8.81,8.81,0,0,0-2.22,3.15,10,10,0,0,0-.76,3.91,8.71,8.71,0,0,0,1.28,5,10.67,10.67,0,0,0,3.2,3,20.18,20.18,0,0,0,4.14,1.95c1.49.5,2.87,1.05,4.14,1.62a10.71,10.71,0,0,1,3.2,2.16,4.75,4.75,0,0,1,1.29,3.54,6,6,0,0,1-.37,2.05,4.82,4.82,0,0,1-1.1,1.73,5.25,5.25,0,0,1-1.89,1.18,7.68,7.68,0,0,1-2.78.45,11.93,11.93,0,0,1-3.33-.42,6.81,6.81,0,0,1-2.54-1.34,8.52,8.52,0,0,1-1.94-2.36,18.71,18.71,0,0,1-1.52-3.43,1.7,1.7,0,0,0-.53-.81,1.53,1.53,0,0,0-.94-.24,3.27,3.27,0,0,0-1.21.21c.28,1.36.54,2.77.76,4.22s.4,2.93.5,4.43a26.4,26.4,0,0,0,4.51,1.62,23.82,23.82,0,0,0,6.19.74,15.22,15.22,0,0,0,5.4-.86,10.8,10.8,0,0,0,3.72-2.31,8.73,8.73,0,0,0,2.15-3.33,11.21,11.21,0,0,0,.68-3.88,8.59,8.59,0,0,0-1.33-5A11.4,11.4,0,0,0,293.17,486.54Z"/><path class="cls-9" d="M341.44,472.9q-3.15-2.5-8.77-2.5h-7.91c-1,0-2.16,0-3.44-.09s-2.41-.11-3.37-.18a.61.61,0,0,0-.11.43V471a1.27,1.27,0,0,0,.16.73,1,1,0,0,0,.42.32,7.57,7.57,0,0,1,2.9.73,1.62,1.62,0,0,1,.76,1.52v26.26a2.35,2.35,0,0,1-.13.87,1.23,1.23,0,0,1-.49.58,3.55,3.55,0,0,1-1,.4,17.14,17.14,0,0,1-1.79.41c-.38.06-.58.4-.58,1v.4a1.3,1.3,0,0,0,.11.49c1-.09,2.1-.13,3.29-.2s2.39-.06,3.64-.06q2.67,0,4.95.06c1.52.07,2.79.11,3.8.2a5,5,0,0,0,.11-1c0-.62-.24-1-.74-1a11.56,11.56,0,0,1-3.48-.8,1.73,1.73,0,0,1-1-1.7V490.16h4a14,14,0,0,0,5-.85,11.37,11.37,0,0,0,3.76-2.23,9,9,0,0,0,2.32-3.24,9.84,9.84,0,0,0,.78-3.9A8.54,8.54,0,0,0,341.44,472.9Zm-6,13a8,8,0,0,1-5.18,1.61h-1.57V473h1.57c2.7,0,4.55.65,5.58,1.95a8.39,8.39,0,0,1,1.56,5.44C337.4,483,336.73,484.83,335.44,485.92Z"/><path class="cls-10" d="M391.35,502.73a8,8,0,0,1-1.94-.53A2.14,2.14,0,0,1,388.2,501l-12.64-31.14a4.16,4.16,0,0,0-.58-.07,3.83,3.83,0,0,0-.51-.05,1.35,1.35,0,0,0-1.25.9l-12.64,30.21a2.74,2.74,0,0,1-1.14,1.25,10,10,0,0,1-2.32.69c-.47,0-.69.38-.69,1.05v.4a1.14,1.14,0,0,0,.11.49c.94-.11,1.78-.17,2.57-.22s1.49,0,2.21,0c1,0,2,0,3.08.06s2.05.11,3,.2a4.66,4.66,0,0,0,.11-.89c0-.6-.24-.94-.74-1a6.31,6.31,0,0,1-2.23-.63,1.09,1.09,0,0,1-.56-.94,3.3,3.3,0,0,1,.07-.49,1.22,1.22,0,0,1,.2-.56l2.73-7.3h11l2.8,7.5a3.67,3.67,0,0,1,.15.79,1.07,1.07,0,0,1-.67,1,7.45,7.45,0,0,1-2,.61.85.85,0,0,0-.4.29,1.23,1.23,0,0,0-.18.71v.4a1.3,1.3,0,0,0,.11.49c.49,0,1.1-.06,1.81-.09l2.17-.06c.73,0,1.45-.07,2.16-.09s1.28,0,1.77,0c1,0,2,0,3.06.06s2.16.11,3.28.2a3.77,3.77,0,0,0,.11-1A1,1,0,0,0,391.35,502.73ZM368,490.32l4.56-11.79L377,490.32Z"/></g></g></svg>