<?xml version="1.0" standalone="no"?>
<svg xmlns:xlink="http://www.w3.org/1999/xlink" id="wave" style="transform:rotate(180deg); transition: 0.3s" viewBox="0 0 1440 170" version="1.1" xmlns="http://www.w3.org/2000/svg"><defs><linearGradient id="sw-gradient-0" x1="0" x2="0" y1="1" y2="0"><stop stop-color="rgba(202, 173, 81, 1)" offset="0%"/><stop stop-color="rgba(239.489, 219.996, 119.745, 1)" offset="100%"/></linearGradient></defs><path style="transform:translate(0, 0px); opacity:1" fill="url(#sw-gradient-0)" d="M0,17L24,14.2C48,11,96,6,144,17C192,28,240,57,288,73.7C336,91,384,96,432,104.8C480,113,528,125,576,119C624,113,672,91,720,73.7C768,57,816,45,864,56.7C912,68,960,102,1008,99.2C1056,96,1104,57,1152,36.8C1200,17,1248,17,1296,28.3C1344,40,1392,62,1440,62.3C1488,62,1536,40,1584,51C1632,62,1680,108,1728,127.5C1776,147,1824,142,1872,127.5C1920,113,1968,91,2016,90.7C2064,91,2112,113,2160,121.8C2208,130,2256,125,2304,119C2352,113,2400,108,2448,93.5C2496,79,2544,57,2592,53.8C2640,51,2688,68,2736,70.8C2784,74,2832,62,2880,65.2C2928,68,2976,85,3024,85C3072,85,3120,68,3168,51C3216,34,3264,17,3312,11.3C3360,6,3408,11,3432,14.2L3456,17L3456,170L3432,170C3408,170,3360,170,3312,170C3264,170,3216,170,3168,170C3120,170,3072,170,3024,170C2976,170,2928,170,2880,170C2832,170,2784,170,2736,170C2688,170,2640,170,2592,170C2544,170,2496,170,2448,170C2400,170,2352,170,2304,170C2256,170,2208,170,2160,170C2112,170,2064,170,2016,170C1968,170,1920,170,1872,170C1824,170,1776,170,1728,170C1680,170,1632,170,1584,170C1536,170,1488,170,1440,170C1392,170,1344,170,1296,170C1248,170,1200,170,1152,170C1104,170,1056,170,1008,170C960,170,912,170,864,170C816,170,768,170,720,170C672,170,624,170,576,170C528,170,480,170,432,170C384,170,336,170,288,170C240,170,192,170,144,170C96,170,48,170,24,170L0,170Z"/></svg>